<svg xmlns="http://www.w3.org/2000/svg" width="335" height="316" viewBox="0 0 335 316">
  <g id="Centers" transform="translate(-999 -193)">
    <g id="Group_60" data-name="Group 60">
      <rect id="Rectangle_241" data-name="Rectangle 241" width="335" height="316" rx="15" transform="translate(999 193)" fill="#3177b3"/>
      <path id="Path_432" data-name="Path 432" d="M1509.28,4841.446H1695.5L1682.2,4825H1523.648Z" transform="translate(-435.388 -4332.446)" fill="#ffb300" fill-rule="evenodd"/>
    </g>
    <text id="CENTRE_MANAGEMENT" data-name="CENTRE
MANAGEMENT" transform="translate(1167 428)" fill="#fff" font-size="25" font-family="SegoeUI-Semibold, Segoe UI" font-weight="600" letter-spacing="0.022em"><tspan x="-46.346" y="0">CENTRE</tspan><tspan x="-89.951" y="33">MANAGEMENT</tspan></text>
    <g id="Layer_x0020_1" transform="translate(1110.144 258.298)">
      <g id="_2539351103968" transform="translate(0 -0.01)">
        <path id="Path_436" data-name="Path 436" d="M40.065,5373.517v-1.981H65.381c0,2.281-.166,3.51,1.279,5.325,2.442,3.067,8.027,1.94,13.03,1.94,1.629,0,8.827-.2,9.822.084a1.773,1.773,0,0,1,.753,3c-1.335,1.271-10.69-.476-14.128.844-3.952,1.518-3.19,5.4-3.871,6.255-1.5,1.879-9.417-1.208-12.644,2.326a5.551,5.551,0,0,0,1.057,8.479c2.936,1.7,4.7-.375,4.7,3.664-1.482.033-4.668.661-7.7.661l-6.6-.222c-1.278-.055-2.574-.414-3.744-.439,0-2.378-.272-4.352-2.646-5.72-2.626-1.512-4.619-.272-4.619-2.646,0-3.05,4.7-.9,7.672-2.233,4.992-2.244,4.2-10.55-2.821-10.542l-20.044.011c-.854.009-3.225.226-2.984-1.928.182-1.623,1.64-1.61,3.426-1.6,3,.02,7.02.22,9.905,0a5.586,5.586,0,0,0,4.846-5.281Zm18.987,34.341H53.665a67.4,67.4,0,0,1-18.252-3.493c-1.447-.479-2.734-1.032-4.125-1.6a52.539,52.539,0,0,1-5.6-2.762c-5.348-2.646-13.233-9.019-17.034-13.565-.924-1.1-1.709-1.981-2.583-3.14-.838-1.111-1.559-2.1-2.324-3.179C2.714,5378.676,0,5374.627,0,5372.857c0-2.56,1.224-4.309,3.522-4.843v-14.53c0-3.037-.937-10.4,3.742-10.786v-7.7c4.609,0,3.743-.686,3.742,3.742q0,2.09,0,4.183c1.2.1,2.322.78,3.522.88v-3.3h3.742v4.624a21.1,21.1,0,0,1,3.443.959c1.214.361,2.022.59,3.241.941,3.886,1.119,4.1,3.228,4.1,6.245H39.845c0-7.308.874-7.264,7.265-7.264,0-2.506-.355-3.743.66-3.743,4.025,0,3.3-.755,3.3,3.743h3.3v-7.265h3.962V5346h3.3c0-2.506-.355-3.743.66-3.743,4.025,0,3.3-.755,3.3,3.743,6.391,0,7.265-.043,7.265,7.264H83.653V5351.5c0-4.032,4.771-4.628,7.512-5.476a19.5,19.5,0,0,1,3.275-.907V5340.5h3.742v3.3c1.389-.115,2.285-.778,3.522-.88,0-9.428-1-7.925,3.742-7.925v7.7c1.815.151,3.164,2.013,3.583,3.682.35,1.4.16,19.305.16,21.634,2.3.535,3.522,2.283,3.522,4.843,0,2.306-4.75,8.764-6.257,10.694a72.042,72.042,0,0,1-8.145,8.585c-1.106.855-1.9,1.649-3.019,2.484a54.7,54.7,0,0,1-8.558,5.531,41.149,41.149,0,0,1-5.625,2.74,67.618,67.618,0,0,1-22.055,4.968Zm10.071-5.063a5.513,5.513,0,0,0-5.1-5.906c-1.15-.146-2.163-.352-2.163-1.579,0-2.1,1.828-1.987,3.962-1.982,1.664,0,4.381.161,5.924-.02a5.624,5.624,0,0,0,3.674-2.27c1.467-2.144.591-3.49,1.521-4.423s3.683-.552,5.392-.552c4.13,0,8.087.6,10.481-1.406a5.488,5.488,0,0,0,.877-7.09,5.7,5.7,0,0,0-2.247-1.936c-2.459-1.179-16.175-.392-20.351-.562-2.23-.091-1.969-1.663-1.969-3.535h38.524c3.1,0-.231,4.088-1.761,6.384l-4.79,6.218c-.366.415-.7.7-1.1,1.1-.788.786-1.414,1.414-2.2,2.2C90.435,5394.8,80.225,5400.21,69.124,5402.8ZM3.742,5372.416c0-.677.645-.88,1.321-.88h31.26c0,4.51-.42,3.535-10.787,3.522-2.4,0-3.877.053-5.225,1.159a5.724,5.724,0,0,0-1.537,1.765,5.535,5.535,0,0,0,3.056,7.827c1.7.537,18.75.286,22.424.25,4.184-.038,3,2.947,1.836,3.39-1.481.563-9.767-1.605-9.767,6.083a5.386,5.386,0,0,0,2.851,4.413c1.392.715,1.178.375,2.821.7a1.967,1.967,0,0,1,1.592,2.15,33.54,33.54,0,0,0-3.33-.853,54.12,54.12,0,0,1-9.585-3.623,56.78,56.78,0,0,1-8.4-4.812,60.126,60.126,0,0,1-7.251-5.958l-3.3-3.3c-.465-.5-.518-.708-.988-1.214-1.339-1.44-6.989-8.915-6.989-10.623Zm69.124-15.41H90.917v10.788H72.866Zm-29.058-7.264H68.9v18.052h-25.1Zm-22.014,7.264H39.845v10.788H21.794Zm65.6-5.282c0-1.035,2.266-1.352,3.743-1.761s2.9-.9,4.374-1.35c1.365-.419,2.9-.836,4.238-1.266,2.4-.766,5.7-2.292,5.7.414v20.032H94.66v-10.566c0-4.607-4.718-3.963-7.265-3.963Zm-69.344,5.5v10.566H7.265v-20.032c0-2.7,3.243-1.175,5.531-.468l10.842,3.247c1.925.535,1.678.53,1.678,2.725C22.648,5353.265,18.051,5352.612,18.051,5357.227Z" transform="translate(0 -5295.148)" fill="#fff" fill-rule="evenodd"/>
        <path id="Path_437" data-name="Path 437" d="M16.29,36.983c-2.257-3.371-8.448-10.22-10.57-13.425C.963,16.375,4.656,3.742,16.951,3.742c6.581,0,12.108,5.909,12.108,12.768,0,6.187-4.9,10.742-9,15.879L16.29,36.983ZM0,15.189C0,23.277,2.121,25.354,6.994,31.31c1.024,1.252,8.485,10.926,9.517,11.617.73-1.09,1.452-1.911,2.3-2.987,2.5-3.181,10.2-12.438,11.617-14.8C37.226,13.793,28.567,0,17.171,0,12,0,8.466,1.109,4.788,4.787,2.194,7.381,0,11.341,0,15.189Z" transform="translate(0 0)" fill="#fff" fill-rule="evenodd"/>
        <path id="Path_438" data-name="Path 438" d="M5353.973,17.6c0-3.069-.152-4.1,1.244-6.9a11.862,11.862,0,0,1,2.408-3.316,12.64,12.64,0,0,1,20.127,3.168c1.411,2.7,1.316,4.11,1.316,7.049,0,5.106-5.467,10.435-8.931,14.844-.646.822-1.119,1.383-1.762,2.2a1.871,1.871,0,1,1-3.712,0l-5.282-6.6c-2.086-2.655-5.409-5.94-5.409-10.442ZM5366.3,42.917h.44c.239-.9,11.216-14.2,12.235-15.5,5.212-6.676,5.241-14.616.756-20.824l-2.2-2.42c-4.1-3.119-5.74-4.181-12.109-4.181-10.585,0-21.318,14.215-11.543,27.173,1.387,1.841,2.761,3.467,4.209,5.256l6.164,7.7A13.794,13.794,0,0,1,5366.3,42.917Z" transform="translate(-5310.165 0.01)" fill="#fff" fill-rule="evenodd"/>
        <path id="Path_439" data-name="Path 439" d="M10726.583,16.51c0-7.248,5.475-12.768,13.208-12.768A12.6,12.6,0,0,1,10751.9,15.85c0,5.963-1.78,7.715-5.333,12.057l-7.214,9.076a17.731,17.731,0,0,1-1.812-2.151c-.672-.821-1.187-1.487-1.861-2.321-1.3-1.607-2.435-3.017-3.717-4.649-2.454-3.126-5.378-5.888-5.378-11.352ZM10738.123,0h2.242a17.484,17.484,0,0,1,6.181,1.61,16.042,16.042,0,0,1,4.308,3.177,16.37,16.37,0,0,1,4.787,10.262v2.826a17.484,17.484,0,0,1-2.487,7.594c-.937,1.547-7.934,10.081-9.3,11.828-.833,1.061-1.509,1.911-2.347,2.936a13.965,13.965,0,0,1-2.371,2.692c-1.3-1.94-7.646-9.635-9.341-11.792-3.987-5.076-6.951-7.727-6.951-15.065A16.409,16.409,0,0,1,10738.123,0Z" transform="translate(-10642.928 0)" fill="#fff" fill-rule="evenodd"/>
        <path id="Path_440" data-name="Path 440" d="M6337.428,984.5c0-1.812.112-3.22,1.6-4.566,2.764-2.5,8.968-2.006,8.968,4.566,0,2.555-2.7,4.843-5.283,4.843S6337.428,987.052,6337.428,984.5Zm5.283,8.585a9.239,9.239,0,0,0,9.145-8.884c.3-4.711-3.9-9.387-8.484-9.387-3.134,0-5.356.664-7.436,2.911a9.122,9.122,0,0,0-1.523,10.009l1.823,2.58A8.85,8.85,0,0,0,6342.711,993.081Z" transform="translate(-6286.355 -967.545)" fill="#fff" fill-rule="evenodd"/>
        <path id="Path_441" data-name="Path 441" d="M11701.362,984.046a5.4,5.4,0,0,1,5.724-5.5c4.356,0,6.916,5.758,3.479,9.2a5.427,5.427,0,0,1-7.5.1A6.062,6.062,0,0,1,11701.362,984.046Zm-3.742-.22c0,8.33,9.974,12.087,15.358,6.774,6.589-6.5,1-15.8-5.452-15.8-3.229,0-5.04.51-7.325,2.8A9.145,9.145,0,0,0,11697.62,983.826Z" transform="translate(-11610.445 -967.535)" fill="#fff" fill-rule="evenodd"/>
        <path id="Path_442" data-name="Path 442" d="M984.056,989.339a5.572,5.572,0,0,1-3.808-1.476,5.372,5.372,0,0,1,4.028-9.311c4.062,0,6.915,5.479,3.583,9.086a6.069,6.069,0,0,1-3.8,1.7Zm-9.246-6.164c0,3.256.5,5.025,2.8,7.324,5.622,5.6,15.469,1.382,15.469-6.443,0-5.041-4.2-9.246-8.585-9.246-2.983,0-4.968.542-7.056,2.63A9.023,9.023,0,0,0,974.81,983.176Z" transform="translate(-967.545 -967.545)" fill="#fff" fill-rule="evenodd"/>
        <path id="Path_443" data-name="Path 443" d="M6321.46,7793.456c4.728,0,3.963.7,3.963-3.083,0-1.034-1.353-.661-3.963-.661Z" transform="translate(-6274.351 -7731.595)" fill="#fff" fill-rule="evenodd"/>
        <path id="Path_444" data-name="Path 444" d="M8264.975,7790.354c0,3.782-.766,3.082,3.964,3.082v-3.742C8266.328,7789.693,8264.975,7789.32,8264.975,7790.354Z" transform="translate(-8203.336 -7731.576)" fill="#fff" fill-rule="evenodd"/>
        <path id="Path_445" data-name="Path 445" d="M6321.46,8768.262c4.728,0,3.963.7,3.963-3.082,0-1.034-1.353-.66-3.963-.66Z" transform="translate(-6274.351 -8699.139)" fill="#fff" fill-rule="evenodd"/>
        <path id="Path_446" data-name="Path 446" d="M8264.975,8765.161c0,3.781-.766,3.082,3.964,3.082V8764.5c-2.61,0-3.964-.374-3.964.66Z" transform="translate(-8203.336 -8699.119)" fill="#fff" fill-rule="evenodd"/>
        <path id="Path_447" data-name="Path 447" d="M7296.27,7792.732v3.082h3.962c0-4.5.722-3.742-3.3-3.742C7296.423,7792.072,7296.27,7792.225,7296.27,7792.732Z" transform="translate(-7241.895 -7733.956)" fill="#fff" fill-rule="evenodd"/>
        <path id="Path_448" data-name="Path 448" d="M7296.27,8767.54v3.082h3.962c0-4.5.722-3.742-3.3-3.742C7296.423,8766.88,7296.27,8767.033,7296.27,8767.54Z" transform="translate(-7241.895 -8701.499)" fill="#fff" fill-rule="evenodd"/>
        <path id="Path_449" data-name="Path 449" d="M13174.6,7802.184h3.742v-3.743h-3.742Z" transform="translate(-13076.418 -7740.324)" fill="#fff" fill-rule="evenodd"/>
        <path id="Path_450" data-name="Path 450" d="M1447.44,7802.184h3.743v-3.743h-3.743Z" transform="translate(-1436.653 -7740.324)" fill="#fff" fill-rule="evenodd"/>
        <path id="Path_451" data-name="Path 451" d="M4371.85,8776.992h3.743v-3.742h-3.743Z" transform="translate(-4339.269 -8707.868)" fill="#fff" fill-rule="evenodd"/>
        <path id="Path_452" data-name="Path 452" d="M11225,8776.992h3.742v-3.742H11225Z" transform="translate(-11141.346 -8707.868)" fill="#fff" fill-rule="evenodd"/>
        <path id="Path_453" data-name="Path 453" d="M13174.6,8776.992h3.742v-3.742h-3.742Z" transform="translate(-13076.418 -8707.868)" fill="#fff" fill-rule="evenodd"/>
        <path id="Path_454" data-name="Path 454" d="M10250.2,8776.992h3.743v-3.742h-3.743Z" transform="translate(-10173.812 -8707.868)" fill="#fff" fill-rule="evenodd"/>
        <path id="Path_455" data-name="Path 455" d="M1447.44,8776.992h3.743v-3.742h-3.743Z" transform="translate(-1436.653 -8707.868)" fill="#fff" fill-rule="evenodd"/>
        <path id="Path_456" data-name="Path 456" d="M3397.05,8776.992h3.743v-3.742h-3.743Z" transform="translate(-3371.734 -8707.868)" fill="#fff" fill-rule="evenodd"/>
      </g>
    </g>
  </g>
</svg>
