<svg xmlns="http://www.w3.org/2000/svg" width="335" height="316" viewBox="0 0 335 316">
  <g id="Checklist" transform="translate(-604 -193)">
    <g id="Group_59" data-name="Group 59">
      <rect id="Rectangle_175" data-name="Rectangle 175" width="335" height="316" rx="15" transform="translate(604 193)" fill="#3177b3"/>
      <path id="Path_425" data-name="Path 425" d="M1509.28,4841.446H1695.5L1682.2,4825H1523.648Z" transform="translate(-830.388 -4332.446)" fill="#ffb300" fill-rule="evenodd"/>
    </g>
    <text id="CHECKLIST_MANAGEMENT" data-name="CHECKLIST
MANAGEMENT" transform="translate(772 428)" fill="#fff" font-size="25" font-family="SegoeUI-Semibold, Segoe UI" font-weight="600" letter-spacing="0.022em"><tspan x="-64.48" y="0">CHECKLIST</tspan><tspan x="-89.951" y="33">MANAGEMENT</tspan></text>
    <g id="Group_58" data-name="Group 58" transform="translate(-829.438 -127.637)">
      <path id="Path_426" data-name="Path 426" d="M1699.08,896.414c1.107-2.307,1.317-7.059,3.248-8.352.6.4,5.091,4.65,5.336,5.568C1705.876,894.577,1701.1,896.369,1699.08,896.414Zm11.194-5.51-5.448-5.571,30.852-30.968,5.683,5.569Zm33.583-33.7c-.6-.4-5.091-4.65-5.336-5.568a29.586,29.586,0,0,1,3.19-3.306c2.286-2.286,2.4-2.726,5.162-2.726,1.789,0,3.248,2.077,3.248,3.944,0,2.152-1.585,3.093-2.726,4.234a33.288,33.288,0,0,1-3.538,3.422Zm-10.208-6.032v-31.32a3.447,3.447,0,0,1,3.248,3.48v24.36C1736.9,848.4,1734.236,850.781,1733.648,851.175ZM1673.793,823.8v-3.944h45.7c0,3.413.469,4.522-1.206,6.218a3.107,3.107,0,0,1-2.529,1.122l-6.261-1.056c-2.11-.421-11.206-2.108-12.74-2.108a37.822,37.822,0,0,0-6.476.948L1677.7,827.2c-1.7.044-3.911-1.628-3.911-3.4Zm6.264-10.672a.892.892,0,0,1,.928-.928c4.717,0,29.7-.362,32.248.232v3.712h-33.176v-3.016Zm-3.712,1.392v1.624h-15.776a7.5,7.5,0,0,0-7.888,7.888v95.816c0,4.144,2.961,7.656,6.96,7.656h74.472a6.921,6.921,0,0,0,4.587-2.374,7.383,7.383,0,0,0,1.91-5.282v-45.7a1.745,1.745,0,0,0-1.856-1.856c-2.4,0-1.856,2.926-1.856,5.336v35.96c0,2.161.175,5.132,0,7.193s-1.9,3.247-4.177,3.247h-72.152a4.093,4.093,0,0,1-2.854-.858,3.515,3.515,0,0,1-1.322-2.39V823.1a3.649,3.649,0,0,1,3.248-3.248h10.44v3.016c0,4.208,3.042,7.888,7.424,7.888,3.82,0,14.871-3.016,19.72-3.016a26.151,26.151,0,0,1,4.62.716c2.35.469,12.348,2.3,14.172,2.3a7.635,7.635,0,0,0,7.192-7.424v-3.48h6.728v34.8c0,.717-1.85,2.2-2.378,2.726l-7.772,7.772c-2.713,2.713-18.459,18.18-20.509,20.788-2.362,3-2.9,7.463-4.115,11.432a4.447,4.447,0,0,0-.367,1.95c.39,2.714,4.005,1.122,7.329.137,7.912-2.346,6.4-1.7,13.255-8.554,1.193-1.193,13.583-13.789,14.558-14.442v40.6h-66.584V826.814c0-3.372-3.712-2.777-3.712-.464V916.6c0,1.948,1.7,3.944,3.481,3.944h66.815c4.581,0,3.712-5.83,3.712-8.12l-.012-38.292c-.022-2.253.388-1.873,3.782-5.266l14.8-14.9a7.5,7.5,0,0,0-9.059-11.379,14.756,14.756,0,0,0-2.548,1.628V826.351c0-4.59-.262-7.476-4.089-9.367a8.474,8.474,0,0,0-3.8-.841h-15.776c0-1.987.205-4.271-.912-5.816a4.518,4.518,0,0,0-2.8-1.607h-33.176a3.786,3.786,0,0,0-2.844,1.8,7.215,7.215,0,0,0-.868,4Z" transform="translate(-101.8 -436.865)" fill="#fff" fill-rule="evenodd"/>
      <path id="Path_427" data-name="Path 427" d="M1939,1326.923c-.746-.519-1.49-1.681-2.377-1.681a1.688,1.688,0,0,0-1.856,1.856c0,1.244,2.932,4.176,4.176,4.176,1.775,0,3.689-3.458,5.8-4.872,0,1.392,0,2.784,0,4.176.007,4.45,1.667,3.48-11.6,3.48-.713,0-.928-.68-.928-1.392v-9.512c0-1.936,1.531-1.392,5.1-1.392h6.728l-5.047,5.161Zm-10.265-4.465v10.9c0,2.61,2.2,4.408,4.872,4.408h10.208a4.738,4.738,0,0,0,4.145-2.814c.73-1.757.514-7.6.493-10.179-.013-1.646-.282-1.965.624-2.856.612-.6,1.371-1.078,1.4-2.04a1.752,1.752,0,0,0-1.794-1.831c-1.165,0-1.346.663-2.088,1.16a4.2,4.2,0,0,0-3.249-1.16h-9.976a4.617,4.617,0,0,0-4.64,4.408Z" transform="translate(-361.378 -915.805)" fill="#fff" fill-rule="evenodd"/>
      <path id="Path_428" data-name="Path 428" d="M1939.126,1746.983c-1.426-.937-1.061-1.57-2.961-1.57-1.085,0-1.392,1.189-1.392,2.088,0,.678,1.333,1.68,1.8,2.146.548.549,1.493,1.8,2.378,1.8,1.624,0,4.426-3.951,5.8-4.872,0,1.392,0,2.785,0,4.177.013,4.188,1.531,3.248-11.6,3.248-.713,0-.928-.68-.928-1.392v-9.511c0-1.324.481-1.419,1.837-1.411l10.227.019-5.158,5.282Zm-10.386-4.585v11.368c0,1.711,2.123,3.944,4.408,3.944h10.672a4.658,4.658,0,0,0,4.317-3.339c.756-2.8.041-10.229.38-11.452.163-.592,3.778-3.413.844-4.691-1.243-.541-1.715.381-2.524.923-1.189-.629-1.6-1.16-3.48-1.16h-9.976a4.617,4.617,0,0,0-4.641,4.408Z" transform="translate(-361.388 -1310.688)" fill="#fff" fill-rule="evenodd"/>
      <path id="Path_429" data-name="Path 429" d="M1932.221,2172.536v-9.512c0-.713.215-1.392.928-1.392h10.672a.891.891,0,0,1,.928.929V2173a.891.891,0,0,1-.928.928h-10.672C1932.436,2173.928,1932.221,2173.248,1932.221,2172.536Zm-3.48-10.208V2173.7a4.608,4.608,0,0,0,4.408,3.944h10.672c2.986,0,4.64-2.617,4.64-5.8,0-3.513.548-9.887-1.115-12.109a5.071,5.071,0,0,0-3.757-1.811h-10.208a4.654,4.654,0,0,0-4.64,4.408Z" transform="translate(-361.388 -1705.563)" fill="#fff" fill-rule="evenodd"/>
      <path id="Path_430" data-name="Path 430" d="M2359.216,1457.62h21.808a1.741,1.741,0,1,0,0-3.48h-21.808A1.741,1.741,0,1,0,2359.216,1457.62Z" transform="translate(-764.487 -1043.775)" fill="#fff" fill-rule="evenodd"/>
      <path id="Path_431" data-name="Path 431" d="M2359.216,1877.54h8.352c1.938,0,1.7-3.48,0-3.48h-8.352A1.741,1.741,0,1,0,2359.216,1877.54Z" transform="translate(-764.487 -1438.64)" fill="#fff" fill-rule="evenodd"/>
    </g>
  </g>
</svg>
