<svg xmlns="http://www.w3.org/2000/svg" width="335" height="316" viewBox="0 0 335 316">
  <g id="KRA-KPI" transform="translate(-999 -569)">
    <g id="Group_61" data-name="Group 61">
      <rect id="Rectangle_243" data-name="Rectangle 243" width="335" height="316" rx="15" transform="translate(999 569)" fill="#3177b3"/>
      <path id="Path_434" data-name="Path 434" d="M1509.28,4841.446H1695.5L1682.2,4825H1523.648Z" transform="translate(-435.388 -3956.446)" fill="#ffb300" fill-rule="evenodd"/>
    </g>
    <text id="KRA-KPI_MANAGEMENT" data-name="KRA-KPI
MANAGEMENT" transform="translate(1167 804)" fill="#fff" font-size="25" font-family="SegoeUI-Semibold, Segoe UI" font-weight="600" letter-spacing="0.022em"><tspan x="-49.068" y="0">KRA-KPI</tspan><tspan x="-89.951" y="33">MANAGEMENT</tspan></text>
    <g id="Layer_x0020_1" transform="translate(1113.99 646.183)">
      <g id="_2539176875856" transform="translate(0.01 -0.01)">
        <path id="Path_457" data-name="Path 457" d="M59.637,77.3h9.047v23.851H59.637V77.3ZM36.608,60.029h9.047v41.122H36.608ZM13.58,82.647h9.047v18.5H13.58ZM78.553,54.684v10.9c0,1.167,1.333,1.645,2.467,1.645a2.277,2.277,0,0,0,1.645-1.645V56.945h9.047v44.206H82.666V78.534a2.192,2.192,0,0,0-.7-1.152,2.132,2.132,0,0,0-3.414,1.152v22.617H72.8V74.833a2.277,2.277,0,0,0-1.645-1.645H57.17a2.277,2.277,0,0,0-1.645,1.645v26.319H49.768V57.768A2.213,2.213,0,0,0,47.3,55.712H34.964A2.213,2.213,0,0,0,32.5,57.768v43.384H26.739V80.179a2.277,2.277,0,0,0-1.645-1.645H11.113a2.277,2.277,0,0,0-1.645,1.645v6.169c-2.534,0-5.346.45-5.346-3.7V18.908H101.17V82.647c0,4.151-2.811,3.7-5.346,3.7V54.684a2.213,2.213,0,0,0-2.467-2.056H81.021a2.213,2.213,0,0,0-2.467,2.056ZM4.122,11.3c0-4.645,2.552-7.2,7.2-7.2H93.974c7.661,0,7.2,5.913,7.2,10.692H4.122V11.3ZM.01,9.449V84.086c0,3.352,3.351,6.579,8.019,6.579H9.468v10.486H1.655c-1.167,0-1.645,1.333-1.645,2.467a2.277,2.277,0,0,0,1.645,1.645H103.638c1.167,0,1.645-1.333,1.645-2.467a2.277,2.277,0,0,0-1.645-1.645H95.825V90.665c3.245,0,4.45.045,6.878-1.758a7.177,7.177,0,0,0,2.58-4.822V9.448c0-4.572-4.886-9.458-9.458-9.458H9.469C4.9-.01.011,4.876.011,9.448Z" transform="translate(-0.01 0.01)" fill="#fff" fill-rule="evenodd"/>
        <path id="Path_458" data-name="Path 458" d="M227.508,486.13c0,4.119-6.485,4.4-6.485,0S227.508,482.01,227.508,486.13Zm-48.935,1.234c-4.614,0-4.837-6.374,0-6.374C182.382,480.99,182.206,487.363,178.573,487.363Zm18.5-25.29a2.954,2.954,0,0,1,.963-2.738,1.981,1.981,0,0,1,.823-.616c4.626-2.042,6.655,5.618,1.64,6.153C198.964,465.036,197.078,463.617,197.078,462.073Zm50.375-3.7c4.119,0,4.4,6.485,0,6.485S243.333,458.372,247.453,458.372Zm-54.692,3.29c0,2.1.814,2.986,1.028,3.907-.649.969-11.765,11.926-11.926,11.926-1.061,0-4.31-2.518-8.786,1.289a8.047,8.047,0,0,0-2.317,5.29,7.484,7.484,0,0,0,9.33,7.274,5.994,5.994,0,0,0,2.859-1.459,7.331,7.331,0,0,0,1.793-9.31L197.028,468.4c1.757.474,1.393.667,3.546.667,1.586,0,2.144-.556,3.29-.822l13.931,14.033c-3.645,7.261,3.463,13.321,9.512,10.644a5.436,5.436,0,0,0,1.057-.587c.216-.16.838-.655,1.025-.826a9.8,9.8,0,0,0,1.419-1.87c.913-1.783.813-2.431.813-4.327,0-1.242-.587-1.869-.822-2.878L244.73,468.6c6.263,1.751,10.125-2.526,10.125-6.529a6.458,6.458,0,0,0-.746-3.778,3.476,3.476,0,0,0-.641-1c-5.331-6.568-13.418-1.422-13.418,3.548,0,4.24.786,3.463,1.234,5.141L227.869,479.5c-1.015-.2-3.12-1.261-5.51-.575-2.049.589-.825,1.128-4.875-2.922-1.471-1.471-9.9-10.072-10.743-10.64,3.114-5.885-1.973-11.1-5.757-11.1-3.6,0-6.016,1.15-7.543,4.382a8.562,8.562,0,0,0-.681,3.02Z" transform="translate(-160.274 -426.296)" fill="#fff" fill-rule="evenodd"/>
        <path id="Path_459" data-name="Path 459" d="M709.83,122.175c0,1.135.478,2.467,1.645,2.467h47.291c1.167,0,1.645-1.333,1.645-2.467a2.277,2.277,0,0,0-1.645-1.645H711.475A2.277,2.277,0,0,0,709.83,122.175Z" transform="translate(-666.241 -113.128)" fill="#fff" fill-rule="evenodd"/>
        <path id="Path_460" data-name="Path 460" d="M154.02,584.235c0,1.135.478,2.467,1.645,2.467h10.692c1.167,0,1.645-1.333,1.645-2.467a2.277,2.277,0,0,0-1.645-1.645H155.665A2.277,2.277,0,0,0,154.02,584.235Z" transform="translate(-144.562 -546.813)" fill="#fff" fill-rule="evenodd"/>
        <path id="Path_461" data-name="Path 461" d="M154.02,423.515c0,1.135.478,2.467,1.645,2.467h10.692c1.167,0,1.645-1.333,1.645-2.467a2.277,2.277,0,0,0-1.645-1.645H155.665A2.277,2.277,0,0,0,154.02,423.515Z" transform="translate(-144.562 -395.963)" fill="#fff" fill-rule="evenodd"/>
        <path id="Path_462" data-name="Path 462" d="M438.62,423.909a2.379,2.379,0,0,0,.493,1.358,2.05,2.05,0,0,0,3.619-1.563c0-2.525-4.112-2.479-4.112.206Z" transform="translate(-411.685 -395.945)" fill="#fff" fill-rule="evenodd"/>
        <path id="Path_463" data-name="Path 463" d="M448.66,121.893c0,3.791,4.113,2.556,4.113.822C452.772,118.924,448.66,120.16,448.66,121.893Z" transform="translate(-421.109 -112.846)" fill="#fff" fill-rule="evenodd"/>
        <path id="Path_464" data-name="Path 464" d="M180.8,121.893c0,3.791,4.112,2.556,4.112.822C184.912,118.924,180.8,120.16,180.8,121.893Z" transform="translate(-169.698 -112.846)" fill="#fff" fill-rule="evenodd"/>
        <path id="Path_465" data-name="Path 465" d="M314.73,121.893c0,3.791,4.112,2.556,4.112.822C318.842,118.924,314.73,120.16,314.73,121.893Z" transform="translate(-295.403 -112.846)" fill="#fff" fill-rule="evenodd"/>
        <path id="Path_466" data-name="Path 466" d="M1279.03,1149.338a2.062,2.062,0,1,0,4.112,0C1283.142,1146.787,1279.03,1146.787,1279.03,1149.338Z" transform="translate(-1200.487 -1076.962)" fill="#fff" fill-rule="evenodd"/>
      </g>
    </g>
  </g>
</svg>
