<svg xmlns="http://www.w3.org/2000/svg" width="335" height="316" viewBox="0 0 335 316">
  <g id="Timesheet" transform="translate(-604 -569)">
    <g id="Group_62" data-name="Group 62">
      <rect id="Rectangle_242" data-name="Rectangle 242" width="335" height="316" rx="15" transform="translate(604 569)" fill="#3177b3"/>
      <path id="Path_433" data-name="Path 433" d="M1509.28,4841.446H1695.5L1682.2,4825H1523.648Z" transform="translate(-830.388 -3956.446)" fill="#ffb300" fill-rule="evenodd"/>
    </g>
    <text id="TIMESHEET_MANAGEMENT" data-name="TIMESHEET
MANAGEMENT" transform="translate(772 804)" fill="#fff" font-size="25" font-family="SegoeUI-Semibold, Segoe UI" font-weight="600" letter-spacing="0.022em"><tspan x="-66.659" y="0">TIMESHEET</tspan><tspan x="-89.951" y="33">MANAGEMENT</tspan></text>
    <g id="Layer_x0020_1" transform="translate(711.277 646.177)">
      <path id="Path_435" data-name="Path 435" d="M61.024,84.347A23.361,23.361,0,0,1,89.541,61.664a22.541,22.541,0,0,1,4.37,1.463,23.474,23.474,0,0,1,13.13,16.036,23.025,23.025,0,0,1-6.25,21.618c-12.149,12.149-31.868,6.995-37.655-6.88a25.282,25.282,0,0,1-2.112-9.554ZM82.562,102.3a1.8,1.8,0,1,0,3.59,0A1.795,1.795,0,1,0,82.562,102.3Zm12.564-5.385a1.8,1.8,0,1,0,3.59,0A1.795,1.795,0,1,0,95.126,96.911ZM70,96.911a1.8,1.8,0,1,0,3.59,0A1.795,1.795,0,1,0,70,96.911Zm30.512-12.564a1.8,1.8,0,1,0,3.59,0A1.795,1.795,0,1,0,100.511,84.347Zm-35.9,0a1.8,1.8,0,1,0,3.59,0A1.795,1.795,0,1,0,64.614,84.347ZM95.126,71.783a1.8,1.8,0,1,0,3.59,0A1.795,1.795,0,1,0,95.126,71.783ZM70,71.783a1.8,1.8,0,1,0,3.59,0A1.795,1.795,0,1,0,70,71.783ZM82.562,66.4a1.8,1.8,0,1,0,3.59,0A1.795,1.795,0,1,0,82.562,66.4ZM34.155,33.248,31.682,30.9,29.22,33.472l4.827,4.937,8.636-8.525-2.577-2.47-5.951,5.833Zm17.95,35.9L49.63,66.8,47.065,69.49,52,74.3,60.522,65.9,57.937,63.2l-5.832,5.942ZM88,51.2,85.527,48.85l-2.566,2.692,4.933,4.813,8.524-8.407-2.585-2.692L88,51.2Zm-5.44,33.149c0-2.267,3.59-2.267,3.59,0S82.562,86.613,82.562,84.346Zm0-5.609c0,1.316-3.59.85-3.59,6.057,0,2.746,2.358,4.936,5.833,4.936a6.581,6.581,0,0,0,2.019-.449l5.213,5.332,2.693-2.586-5.386-5.267c.366-2.039,1.014-3.529-.809-5.922a3.527,3.527,0,0,0-1.219-1.024c-.568-.333-1.165-.4-1.165-1.079V71.782h-3.59v6.955ZM32.307,10.758H96.921v3.59H32.307Zm-3.59,7.179H100.51V7.169H28.717V17.938ZM57.435,82.552H5.609A2.027,2.027,0,0,1,3.59,80.532V32.745c0-2.57,1.547-4.909,3.59-5.385v51.6h50.7c-.083,1-.426,2.572-.449,3.59ZM28.717,61.014H43.076V75.372H28.717Zm-17.949,0H25.127V75.372H10.769ZM59.005,75.372H46.665V61.014H61.024v9.423c0,.964-1.481,2.626-2.019,4.936Zm5.609-9.423V61.014h6.057l-3.112,2.272C66.5,64.127,65.558,65.317,64.614,65.95ZM82.562,43.066H96.921V60.341a17.156,17.156,0,0,1-2.391-.975c-4.191-1.886-7.508-1.942-11.968-1.942V43.066Zm-17.948,0H78.972V57.424H64.614Zm-17.948,0H61.024V57.424H46.665Zm-17.948,0H43.076V57.424H28.717Zm-17.949,0H25.127V57.424H10.769ZM82.562,25.117H96.921V39.476H82.562Zm-17.948,0H78.972V39.476H64.614Zm-17.948,0H61.024V39.476H46.665Zm-17.948,0H43.076V39.476H28.717ZM10.769,27.361c3.938.917,3.59,5.72,3.59,8.525h5.16c.026-1.183,1.773-6.778,2.2-8.347.738-2.729-.026-2.422,3.411-2.422V39.476H10.769V27.361Zm17.5-23.781h69.1c8.221,0,6.731-1,6.731,10.545V65.95c-.889-.6-1.437-1.482-2.832-2.553-.389-.3-.758-.5-.758-1.037V21.527H23.333a40.5,40.5,0,0,0,1.249-4.36L28.269,3.579ZM22.884,8.964c-.023,1.051-3.6,13.425-4.012,14.833-.241.82-.45,1.715-.672,2.469a16.248,16.248,0,0,0-.7,2.665c-.773-.889-2.642-5.609-8.077-5.609l4.99-5.33C15.666,16.569,22.042,9.528,22.884,8.964ZM0,28.258,22.884,8.964Zm0,0V81.206a5.308,5.308,0,0,0,4.936,4.936h52.5c.142,6.366,3.48,12.789,8.021,17.331,4.464,4.465,10.987,7.8,17.556,7.8,7.309,0,11.1-1.026,16.874-4.889,6.3-4.219,11.4-12.856,11.4-20.687,0-11.8-3.6-12.836-3.6-15.917L107.69,6.72c.006-2.559-.035-3.212-1.112-4.721A5.335,5.335,0,0,0,102.754-.01H26.474c-.8,0-3.673,3.574-5.106,4.99L9.816,17.434c-.6.594-1.121,1.068-1.686,1.679L1.538,26.206a8.7,8.7,0,0,1-.813.982C.373,27.551,0,27.714,0,28.258Z" transform="translate(0 0)" fill="#fff" fill-rule="evenodd"/>
    </g>
  </g>
</svg>
